Coordinates
version=1
nRows=13
nColumns=40
inDegrees=yes

Units are S.I. units (second, meters, Newtons, ...)
If the header above contains a line with 'inDegrees', this indicates whether rotational values are in degrees (yes) or radians (no).

endheader
time	pelvis_tilt	pelvis_list	pelvis_rotation	pelvis_tx	pelvis_ty	pelvis_tz	hip_flexion_r	hip_adduction_r	hip_rotation_r	knee_angle_r	knee_angle_r_beta	ankle_angle_r	subtalar_angle_r	mtp_angle_r	hip_flexion_l	hip_adduction_l	hip_rotation_l	knee_angle_l	knee_angle_l_beta	ankle_angle_l	subtalar_angle_l	mtp_angle_l	lumbar_extension	lumbar_bending	lumbar_rotation	arm_flex_r	arm_add_r	arm_rot_r	elbow_flex_r	pro_sup_r	wrist_flex_r	wrist_dev_r	arm_flex_l	arm_add_l	arm_rot_l	elbow_flex_l	pro_sup_l	wrist_flex_l	wrist_dev_l
      2.10000000	      3.69709958	     -4.58283593	     -3.96974902	     -0.29111796	      1.05351086	     -1.04840836	     34.34170083	      2.13827196	     -6.12550131	     19.30504974	      0.33693668	    -16.60050799	      0.00000000	      0.00000000	      8.75752782	     -0.77297011	     -7.33132305	     23.56370540	      0.41126424	     -1.78197738	      0.00000000	      0.00000000	    -14.19728878	      6.80124781	      7.26555102	     67.40646876	    -32.71757272	     20.95760201	     47.87502613	     82.89549814	      0.00000000	      0.00000000	     75.94041180	    -42.39849753	     39.50319651	     36.62091553	     82.09887155	      0.00000000	      0.00000000
      2.10500000	      3.71930505	     -4.58168016	     -3.95072614	     -0.29144626	      1.05349633	     -1.04857843	     34.34761332	      2.13830762	     -6.09032111	     19.35191998	      0.33775472	    -16.64557519	      0.00000000	      0.00000000	      8.77166042	     -0.76775038	     -7.30812356	     23.59305070	      0.41177642	     -1.81767850	      0.00000000	      0.00000000	    -14.23769950	      6.87016637	      7.18208003	     67.43116778	    -32.63145838	     20.93173845	     47.86600882	     82.76966062	      0.00000000	      0.00000000	     75.92692028	    -42.68040143	     39.33616250	     36.71542847	     82.25402018	      0.00000000	      0.00000000
      2.11000000	      3.72503426	     -4.59394307	     -3.95063357	     -0.29139950	      1.05343986	     -1.04885609	     34.34503933	      2.15272935	     -6.04897898	     19.39681824	      0.33853834	    -16.56185469	      0.00000000	      0.00000000	      8.77470354	     -0.77681742	     -7.35730079	     23.62748560	      0.41237742	     -1.78040545	      0.00000000	      0.00000000	    -14.20418172	      6.96296648	      7.18325641	     67.39707192	    -32.68191116	     21.10935684	     47.89020393	     82.39139409	      0.00000000	      0.00000000	     75.90065471	    -42.81636564	     39.32565859	     36.73193522	     81.96874883	      0.00000000	      0.00000000
      2.11500000	      3.71180123	     -4.56786105	     -3.95261466	     -0.29159029	      1.05338690	     -1.04902961	     34.35667267	      2.13274700	     -6.10161311	     19.37389282	      0.33813822	    -16.61067764	      0.00000000	      0.00000000	      8.79553238	     -0.75250141	     -7.42564118	     23.61028384	      0.41207719	     -1.80075891	      0.00000000	      0.00000000	    -14.18233060	      6.97190369	      7.20503796	     67.23457735	    -32.66479295	     20.76333873	     47.96140859	     82.62662779	      0.00000000	      0.00000000	     76.00957701	    -42.86619477	     39.30028466	     36.63917947	     82.22342170	      0.00000000	      0.00000000
      2.12000000	      3.77882196	     -4.52778640	     -3.97056429	     -0.29177653	      1.05348176	     -1.04918989	     34.29974265	      2.11311713	     -6.09284632	     19.38365166	      0.33830854	    -16.57979499	      0.00000000	      0.00000000	      8.72796988	     -0.70335933	     -7.46694985	     23.59298056	      0.41177519	     -1.85071247	      0.00000000	      0.00000000	    -14.25258493	      6.96625902	      7.23079765	     67.18413002	    -32.66912641	     20.69290049	     47.95466424	     82.63781271	      0.00000000	      0.00000000	     76.01257796	    -42.98354242	     39.07668164	     36.70541045	     82.26195376	      0.00000000	      0.00000000
      2.12500000	      3.75959026	     -4.58302013	     -3.92394890	     -0.29195078	      1.05336663	     -1.04945440	     34.31885307	      2.14647839	     -6.14780886	     19.38113024	      0.33826454	    -16.59130352	      0.00000000	      0.00000000	      8.77947390	     -0.75313192	     -7.44121617	     23.62724898	      0.41237329	     -1.81895617	      0.00000000	      0.00000000	    -14.25595889	      7.10799351	      7.11526488	     67.18858173	    -32.59980669	     20.74325657	     48.00397924	     82.69063191	      0.00000000	      0.00000000	     75.91177725	    -43.24604032	     38.78741892	     36.88787425	     82.29826721	      0.00000000	      0.00000000
      2.13000000	      3.78512569	     -4.56739758	     -3.92533132	     -0.29206849	      1.05334207	     -1.04969539	     34.29879662	      2.13619281	     -6.16492206	     19.37478051	      0.33815371	    -16.60147174	      0.00000000	      0.00000000	      8.76837434	     -0.72844968	     -7.47838618	     23.64534907	      0.41268919	     -1.82133482	      0.00000000	      0.00000000	    -14.26376057	      7.15525649	      7.08581179	     67.18031683	    -32.57094400	     20.83059921	     47.96682106	     82.63793210	      0.00000000	      0.00000000	     75.91155101	    -43.40141919	     38.71078003	     36.90247196	     82.26157039	      0.00000000	      0.00000000
      2.13500000	      3.79276850	     -4.57558514	     -3.92837784	     -0.29208999	      1.05330848	     -1.04995014	     34.28270568	      2.14825168	     -6.16735259	     19.36661363	      0.33801117	    -16.59654297	      0.00000000	      0.00000000	      8.75354602	     -0.72747538	     -7.52359906	     23.63411255	      0.41249308	     -1.82793417	      0.00000000	      0.00000000	    -14.24212447	      7.20220862	      7.15623392	     66.98992197	    -32.63407709	     20.58794706	     48.10653835	     82.61361763	      0.00000000	      0.00000000	     76.01626682	    -43.38812869	     38.78556733	     36.79769629	     82.27405939	      0.00000000	      0.00000000
      2.14000000	      3.81735857	     -4.57882306	     -3.89550558	     -0.29232844	      1.05327861	     -1.05014856	     34.26118415	      2.15034245	     -6.14388458	     19.35638804	      0.33783270	    -16.60662724	      0.00000000	      0.00000000	      8.75724442	     -0.72656624	     -7.51614600	     23.65842662	      0.41291744	     -1.84290769	      0.00000000	      0.00000000	    -14.27887981	      7.25778347	      7.03980878	     67.01396890	    -32.52198141	     20.61580013	     48.07594799	     82.63989437	      0.00000000	      0.00000000	     75.96308444	    -43.59353064	     38.47280339	     36.91176470	     82.39385922	      0.00000000	      0.00000000
      2.14500000	      3.82855078	     -4.58701562	     -3.81736327	     -0.29239916	      1.05321377	     -1.05051033	     34.24546158	      2.11379068	     -6.21021486	     19.35197139	      0.33775562	    -16.62260440	      0.00000000	      0.00000000	      8.76078191	     -0.71280081	     -7.52704142	     23.66481465	      0.41302893	     -1.82559346	      0.00000000	      0.00000000	    -14.26547895	      7.33534857	      6.95266411	     66.97900850	    -32.51926951	     20.63863301	     48.07879998	     82.67067377	      0.00000000	      0.00000000	     75.88851382	    -43.68712678	     38.12871944	     37.03101218	     82.39517116	      0.00000000	      0.00000000
      2.15000000	      3.83421020	     -4.58274895	     -3.80692248	     -0.29247154	      1.05315222	     -1.05071799	     34.24927104	      2.10589817	     -6.25019724	     19.36893004	      0.33805160	    -16.57844324	      0.00000000	      0.00000000	      8.77115606	     -0.70439585	     -7.54131465	     23.69848841	      0.41361665	     -1.80560190	      0.00000000	      0.00000000	    -14.23189107	      7.38341237	      6.95237968	     66.90719129	    -32.50316271	     20.61509190	     48.05655590	     82.65187131	      0.00000000	      0.00000000	     75.89776916	    -43.75005701	     38.09234839	     37.02281332	     82.39906570	      0.00000000	      0.00000000
      2.15500000	      3.86332794	     -4.57941214	     -3.71733939	     -0.29268109	      1.05307839	     -1.05106278	     34.22633976	      2.05555575	     -6.31642025	     19.37946057	      0.33823539	    -16.52700300	      0.00000000	      0.00000000	      8.78620750	     -0.67730981	     -7.46000113	     23.75644333	      0.41462815	     -1.76304404	      0.00000000	      0.00000000	    -14.23014768	      7.43188429	      6.87060198	     66.95339081	    -32.54016062	     20.93765641	     47.97427725	     82.19432562	      0.00000000	      0.00000000	     76.08193532	    -43.84414386	     38.53204239	     36.94456373	     82.02973851	      0.00000000	      0.00000000
      2.16000000	      3.86361536	     -4.58339162	     -3.70919444	     -0.29270996	      1.05305358	     -1.05121265	     34.21067570	      2.07107842	     -6.29007495	     19.34394273	      0.33761549	    -16.55767820	      0.00000000	      0.00000000	      8.77169324	     -0.67731345	     -7.49494432	     23.71591089	      0.41392073	     -1.78949355	      0.00000000	      0.00000000	    -14.20563277	      7.46810380	      6.88377262	     66.69980468	    -32.48172089	     20.43869743	     48.13061338	     82.42090944	      0.00000000	      0.00000000	     76.05242378	    -43.92959300	     38.35784623	     37.06666549	     82.24018842	      0.00000000	      0.00000000
